<svg width="880" height="606" fill="none" xmlns="http://www.w3.org/2000/svg"><circle cx="537.5" cy="389.5" r="199.5" fill="#63A6E9" style="mix-blend-mode:multiply"/><circle cx="341.5" cy="389.5" r="199.5" fill="#FCA326" style="mix-blend-mode:multiply" opacity=".72"/><ellipse cx="441" cy="216.5" rx="200" ry="199.5" fill="#A989F5" style="mix-blend-mode:multiply"/><path d="M403.612 124.638c-.057-.573-.301-1.018-.732-1.335-.431-.318-1.015-.476-1.754-.476-.502 0-.926.071-1.271.213-.346.137-.611.329-.796.575-.18.246-.27.526-.27.838-.009.261.045.488.164.682.123.194.291.362.504.504.213.138.459.258.739.362.279.1.577.185.895.256l1.306.313a9.175 9.175 0 0 1 1.747.568c.531.237.99.528 1.378.873.389.346.689.753.902 1.222.218.469.329 1.006.334 1.612-.005.89-.232 1.662-.682 2.316-.445.648-1.089 1.152-1.932 1.512-.838.355-1.848.533-3.032.533-1.174 0-2.197-.18-3.068-.54-.867-.36-1.544-.892-2.032-1.598-.483-.71-.736-1.588-.76-2.635h2.976c.033.488.173.895.419 1.222.251.322.585.566 1.002.731.421.161.897.242 1.427.242.521 0 .973-.076 1.357-.227.388-.152.689-.363.902-.633.213-.269.319-.58.319-.93a1.21 1.21 0 0 0-.291-.824c-.189-.222-.469-.412-.838-.568a8.552 8.552 0 0 0-1.342-.426l-1.584-.398c-1.226-.298-2.195-.765-2.905-1.399s-1.063-1.489-1.058-2.564c-.005-.881.23-1.65.703-2.308.478-.658 1.134-1.172 1.967-1.541.834-.37 1.781-.554 2.841-.554 1.08 0 2.022.184 2.827.554.81.369 1.439.883 1.889 1.541.45.658.682 1.42.696 2.287h-2.947Zm10.96-.547v2.273h-6.569v-2.273h6.569Zm-5.078-2.614h3.026v10.171c0 .279.042.497.128.653a.702.702 0 0 0 .355.32c.156.061.336.092.54.092.142 0 .284-.012.426-.035.142-.029.251-.05.326-.064l.476 2.251a8.321 8.321 0 0 1-.639.163 5.053 5.053 0 0 1-1.001.121c-.73.029-1.369-.069-1.918-.291a2.68 2.68 0 0 1-1.271-1.037c-.303-.469-.452-1.061-.448-1.776v-10.568ZM416.543 135v-10.909h2.934v1.903h.113c.199-.677.533-1.188 1.002-1.534a2.631 2.631 0 0 1 1.619-.525 4.559 4.559 0 0 1 .952.106v2.685a3.885 3.885 0 0 0-.59-.114 5.318 5.318 0 0 0-.689-.05 2.42 2.42 0 0 0-1.193.292 2.14 2.14 0 0 0-.824.795 2.296 2.296 0 0 0-.298 1.179V135h-3.026Zm15.18-4.645v-6.264h3.025V135h-2.905v-1.982h-.113a3.222 3.222 0 0 1-1.229 1.542c-.568.388-1.262.582-2.081.582-.729 0-1.371-.166-1.925-.497a3.42 3.42 0 0 1-1.299-1.413c-.308-.611-.464-1.343-.469-2.195v-6.946h3.025v6.406c.005.644.178 1.153.519 1.527.341.374.798.561 1.371.561.364 0 .705-.083 1.022-.248.318-.171.573-.422.767-.753.199-.332.296-.741.292-1.229Zm10.374 4.858c-1.117 0-2.078-.237-2.883-.71a4.8 4.8 0 0 1-1.847-1.989c-.426-.847-.639-1.823-.639-2.926 0-1.117.215-2.097.646-2.94a4.807 4.807 0 0 1 1.854-1.982c.8-.478 1.752-.717 2.855-.717.952 0 1.785.173 2.5.518a4.176 4.176 0 0 1 1.697 1.456c.417.625.647 1.359.689 2.202h-2.855c-.08-.545-.293-.982-.639-1.314-.341-.336-.788-.504-1.342-.504-.469 0-.879.128-1.229.383-.346.251-.615.618-.81 1.101-.194.483-.291 1.068-.291 1.754 0 .696.095 1.288.284 1.776.194.488.467.859.817 1.115.35.256.76.384 1.229.384.345 0 .656-.071.93-.213a1.8 1.8 0 0 0 .689-.618c.185-.275.305-.604.362-.988h2.855c-.047.834-.274 1.568-.681 2.202a4.12 4.12 0 0 1-1.669 1.477c-.711.356-1.551.533-2.522.533Zm12.612-11.122v2.273h-6.569v-2.273h6.569Zm-5.078-2.614h3.026v10.171c0 .279.042.497.127.653a.708.708 0 0 0 .356.32c.156.061.336.092.539.092.142 0 .284-.012.426-.035.142-.029.251-.05.327-.064l.476 2.251a8.574 8.574 0 0 1-.639.163 5.064 5.064 0 0 1-1.002.121c-.729.029-1.368-.069-1.917-.291a2.677 2.677 0 0 1-1.272-1.037c-.303-.469-.452-1.061-.447-1.776v-10.568Zm14.045 8.878v-6.264h3.025V135h-2.905v-1.982h-.113a3.222 3.222 0 0 1-1.229 1.542c-.568.388-1.262.582-2.081.582-.729 0-1.371-.166-1.925-.497a3.42 3.42 0 0 1-1.299-1.413c-.308-.611-.464-1.343-.469-2.195v-6.946h3.026v6.406c.004.644.177 1.153.518 1.527.341.374.798.561 1.371.561a2.19 2.19 0 0 0 1.023-.248c.317-.171.572-.422.767-.753.198-.332.295-.741.291-1.229Zm5.445 4.645v-10.909h2.934v1.903h.113c.199-.677.533-1.188 1.002-1.534a2.631 2.631 0 0 1 1.619-.525 4.545 4.545 0 0 1 .952.106v2.685a3.885 3.885 0 0 0-.59-.114 5.318 5.318 0 0 0-.689-.05c-.445 0-.842.098-1.193.292a2.14 2.14 0 0 0-.824.795 2.296 2.296 0 0 0-.298 1.179V135h-3.026Zm12.648.213c-1.122 0-2.088-.227-2.898-.682a4.67 4.67 0 0 1-1.861-1.946c-.435-.843-.653-1.839-.653-2.99 0-1.122.218-2.107.653-2.954a4.833 4.833 0 0 1 1.84-1.982c.795-.473 1.728-.71 2.798-.71.72 0 1.39.116 2.01.348.625.227 1.169.57 1.634 1.03.468.459.833 1.037 1.093 1.733.261.691.391 1.501.391 2.429v.831h-9.212v-1.875h6.364c0-.436-.095-.822-.284-1.158a2.033 2.033 0 0 0-.789-.788c-.331-.195-.717-.292-1.157-.292-.46 0-.867.107-1.222.32-.35.208-.625.49-.824.845a2.39 2.39 0 0 0-.305 1.172v1.783c0 .539.099 1.006.298 1.399.204.393.49.696.86.909.369.213.807.32 1.313.32.337 0 .644-.048.924-.143.279-.094.518-.236.717-.426.199-.189.35-.421.455-.696l2.798.185a3.816 3.816 0 0 1-.874 1.761c-.435.498-.999.886-1.69 1.165-.687.275-1.48.412-2.379.412Z" fill="#1F1F1F"/><path d="M382.618 319.638c-.057-.573-.301-1.018-.732-1.335-.431-.318-1.015-.476-1.754-.476-.502 0-.926.071-1.271.213-.346.137-.611.329-.796.575-.18.246-.27.526-.27.838-.009.26.045.488.164.682.123.194.291.362.504.504.213.137.459.258.738.362.28.1.578.185.895.256l1.307.313a9.175 9.175 0 0 1 1.747.568c.531.236.99.528 1.378.873.388.346.689.753.902 1.222.218.469.329 1.006.334 1.612-.005.89-.232 1.662-.682 2.315-.445.649-1.089 1.153-1.932 1.513-.838.355-1.849.533-3.032.533-1.175 0-2.197-.18-3.069-.54-.866-.36-1.543-.892-2.031-1.598-.483-.71-.736-1.588-.76-2.635h2.976c.033.488.173.895.419 1.222.251.322.585.566 1.002.731.421.161.897.242 1.427.242.521 0 .973-.076 1.357-.227.388-.152.689-.363.902-.633.213-.269.319-.58.319-.93a1.21 1.21 0 0 0-.291-.824c-.189-.222-.469-.412-.838-.568a8.586 8.586 0 0 0-1.342-.426l-1.584-.398c-1.226-.298-2.195-.765-2.905-1.399-.71-.635-1.063-1.489-1.058-2.564-.005-.881.229-1.65.703-2.308.478-.658 1.134-1.172 1.967-1.541.834-.37 1.781-.554 2.841-.554 1.08 0 2.022.184 2.827.554.81.369 1.439.883 1.889 1.541.45.658.682 1.42.696 2.287h-2.947Zm10.087 10.575c-1.104 0-2.058-.234-2.863-.703a4.81 4.81 0 0 1-1.853-1.975c-.436-.847-.654-1.83-.654-2.947 0-1.127.218-2.112.654-2.955a4.754 4.754 0 0 1 1.853-1.974c.805-.473 1.759-.71 2.863-.71 1.103 0 2.055.237 2.855.71a4.747 4.747 0 0 1 1.861 1.974c.435.843.653 1.828.653 2.955 0 1.117-.218 2.1-.653 2.947a4.804 4.804 0 0 1-1.861 1.975c-.8.469-1.752.703-2.855.703Zm.014-2.344c.502 0 .921-.142 1.257-.426.336-.289.589-.682.76-1.179.175-.497.263-1.063.263-1.697 0-.635-.088-1.201-.263-1.698-.171-.497-.424-.89-.76-1.179-.336-.289-.755-.433-1.257-.433-.507 0-.933.144-1.279.433-.34.289-.598.682-.774 1.179-.17.497-.255 1.063-.255 1.698 0 .634.085 1.2.255 1.697.176.497.434.89.774 1.179.346.284.772.426 1.279.426Zm7.322 6.222v-15h2.983v1.832h.135c.133-.293.325-.592.576-.895.255-.307.587-.563.994-.767.412-.208.923-.312 1.534-.312.795 0 1.529.208 2.202.625.672.412 1.209 1.034 1.612 1.868.402.828.604 1.868.604 3.118 0 1.216-.197 2.244-.59 3.082-.388.833-.919 1.465-1.591 1.896a4.084 4.084 0 0 1-2.244.64c-.587 0-1.087-.098-1.499-.292a3.1 3.1 0 0 1-1.001-.731 3.735 3.735 0 0 1-.597-.902h-.092v5.838h-3.026Zm2.962-9.546c0 .649.09 1.215.27 1.698.18.483.44.859.781 1.129.341.265.755.398 1.243.398.492 0 .909-.135 1.25-.405.341-.275.599-.653.774-1.136.18-.488.27-1.049.27-1.684 0-.629-.088-1.183-.263-1.662-.175-.478-.433-.852-.774-1.122-.341-.27-.76-.405-1.257-.405-.492 0-.909.131-1.25.391-.336.261-.594.63-.774 1.108-.18.478-.27 1.042-.27 1.69Zm12.72-.852V330h-3.025v-14.545h2.94v5.561h.128a3.085 3.085 0 0 1 1.193-1.513c.549-.37 1.238-.554 2.067-.554.757 0 1.418.166 1.981.497a3.322 3.322 0 0 1 1.321 1.413c.317.611.474 1.343.469 2.195V330h-3.026v-6.406c.005-.673-.165-1.196-.511-1.57-.341-.374-.819-.561-1.435-.561-.412 0-.776.088-1.093.263a1.86 1.86 0 0 0-.739.767c-.175.331-.265.731-.27 1.2Zm9.455 6.307v-10.909h3.026V330h-3.026Zm1.52-12.315c-.45 0-.836-.15-1.158-.448a1.45 1.45 0 0 1-.476-1.086c0-.417.159-.775.476-1.073a1.63 1.63 0 0 1 1.158-.454c.45 0 .833.151 1.15.454.322.298.483.656.483 1.073 0 .421-.161.783-.483 1.086-.317.298-.7.448-1.15.448Zm13.006 4.517-2.77.17a1.426 1.426 0 0 0-.305-.639 1.638 1.638 0 0 0-.618-.462 2.106 2.106 0 0 0-.902-.177c-.469 0-.864.099-1.186.298-.322.194-.483.455-.483.781 0 .261.104.481.312.661.209.18.566.324 1.073.433l1.974.398c1.061.218 1.851.568 2.372 1.051.521.483.782 1.117.782 1.903 0 .715-.211 1.343-.633 1.882-.416.54-.989.962-1.718 1.265-.725.298-1.56.447-2.507.447-1.445 0-2.595-.301-3.452-.902-.852-.606-1.352-1.43-1.499-2.472l2.976-.156c.09.441.308.777.654 1.009.345.227.788.341 1.328.341.53 0 .956-.102 1.278-.306.327-.208.493-.476.497-.802a.83.83 0 0 0-.348-.675c-.227-.18-.577-.317-1.051-.412l-1.889-.376c-1.065-.213-1.859-.583-2.379-1.108-.516-.526-.774-1.196-.774-2.01 0-.701.189-1.305.568-1.811.383-.507.921-.898 1.612-1.172.696-.275 1.51-.412 2.443-.412 1.378 0 2.462.291 3.253.873.795.583 1.259 1.376 1.392 2.38Zm7.956-3.111v2.273h-6.569v-2.273h6.569Zm-5.078-2.614h3.026v10.171c0 .279.042.497.128.653a.702.702 0 0 0 .355.32c.156.061.336.092.539.092.143 0 .285-.012.427-.035.142-.029.251-.05.326-.064l.476 2.251a8.321 8.321 0 0 1-.639.163 5.053 5.053 0 0 1-1.001.121c-.73.029-1.369-.069-1.918-.291a2.674 2.674 0 0 1-1.271-1.037c-.303-.469-.453-1.061-.448-1.776v-10.568ZM449.631 330v-10.909h3.026V330h-3.026Zm1.52-12.315c-.45 0-.836-.15-1.158-.448a1.45 1.45 0 0 1-.475-1.086c0-.417.158-.775.475-1.073a1.63 1.63 0 0 1 1.158-.454c.45 0 .833.151 1.151.454.322.298.483.656.483 1.073 0 .421-.161.783-.483 1.086a1.623 1.623 0 0 1-1.151.448Zm8.858 12.528c-1.117 0-2.078-.237-2.883-.71a4.8 4.8 0 0 1-1.847-1.989c-.426-.847-.639-1.823-.639-2.926 0-1.117.215-2.098.646-2.94a4.807 4.807 0 0 1 1.854-1.982c.8-.478 1.752-.717 2.855-.717.952 0 1.785.173 2.5.518a4.185 4.185 0 0 1 1.698 1.456c.416.625.646 1.359.689 2.202h-2.856c-.08-.545-.293-.983-.639-1.314-.341-.336-.788-.504-1.342-.504-.469 0-.878.128-1.229.383-.345.251-.615.618-.809 1.101-.195.483-.292 1.068-.292 1.754 0 .696.095 1.288.284 1.776.195.488.467.859.817 1.115.351.256.76.384 1.229.384.346 0 .656-.071.93-.214.28-.142.509-.348.689-.617.185-.275.306-.604.362-.988h2.856c-.048.834-.275 1.568-.682 2.202a4.12 4.12 0 0 1-1.669 1.477c-.711.355-1.551.533-2.522.533Zm9.92-.007c-.696 0-1.316-.121-1.86-.362a3 3 0 0 1-1.293-1.087c-.312-.483-.469-1.084-.469-1.804 0-.606.112-1.115.334-1.527a2.71 2.71 0 0 1 .909-.994 4.39 4.39 0 0 1 1.307-.568 9.936 9.936 0 0 1 1.548-.27 39.931 39.931 0 0 0 1.534-.185c.389-.062.67-.151.846-.27.175-.118.262-.293.262-.525v-.043c0-.45-.142-.798-.426-1.044-.279-.246-.677-.369-1.193-.369-.544 0-.978.12-1.3.362a1.666 1.666 0 0 0-.639.895l-2.798-.228a3.8 3.8 0 0 1 .838-1.718c.417-.488.954-.862 1.612-1.122.663-.266 1.43-.398 2.301-.398.606 0 1.186.071 1.74.213a4.559 4.559 0 0 1 1.485.66c.435.299.779.682 1.03 1.151.25.464.376 1.02.376 1.669V330h-2.869v-1.513h-.086a3.061 3.061 0 0 1-.703.902 3.246 3.246 0 0 1-1.058.604c-.412.142-.888.213-1.428.213Zm.867-2.088c.445 0 .838-.088 1.179-.263.341-.18.608-.421.802-.724.195-.303.292-.647.292-1.03v-1.158a1.603 1.603 0 0 1-.391.171 7.44 7.44 0 0 1-.547.135c-.203.037-.407.073-.611.106l-.554.078a3.72 3.72 0 0 0-.93.249 1.485 1.485 0 0 0-.618.461c-.147.19-.22.427-.22.711 0 .412.149.726.447.944.303.213.687.32 1.151.32Zm13.427-9.027v2.273h-6.57v-2.273h6.57Zm-5.078-2.614h3.025v10.171c0 .279.043.497.128.653a.706.706 0 0 0 .355.32c.156.061.336.092.54.092.142 0 .284-.012.426-.035.142-.029.251-.05.327-.064l.476 2.251a8.494 8.494 0 0 1-.64.163 5.043 5.043 0 0 1-1.001.121c-.729.029-1.368-.069-1.918-.291a2.68 2.68 0 0 1-1.271-1.037c-.303-.469-.452-1.061-.447-1.776v-10.568Zm11.903 13.736c-1.122 0-2.088-.227-2.898-.682a4.662 4.662 0 0 1-1.86-1.946c-.436-.843-.654-1.839-.654-2.99 0-1.122.218-2.107.654-2.954a4.825 4.825 0 0 1 1.839-1.982c.795-.473 1.728-.71 2.798-.71.72 0 1.39.116 2.01.348.625.227 1.17.57 1.634 1.03.469.459.833 1.037 1.094 1.733.26.691.39 1.501.39 2.429v.831h-9.211v-1.875h6.363c0-.436-.095-.822-.284-1.158a2.03 2.03 0 0 0-.788-.788 2.244 2.244 0 0 0-1.158-.292c-.459 0-.866.107-1.222.32-.35.208-.625.49-.823.845-.199.35-.301.741-.306 1.172v1.783c0 .539.1 1.006.298 1.399.204.393.491.696.86.909.369.213.807.32 1.314.32.336 0 .644-.048.923-.143a1.844 1.844 0 0 0 1.172-1.122l2.798.185a3.824 3.824 0 0 1-.873 1.761c-.436.497-.999.886-1.691 1.165-.686.275-1.479.412-2.379.412Zm11.001-.035a4.12 4.12 0 0 1-2.251-.64c-.668-.431-1.198-1.063-1.591-1.896-.388-.838-.582-1.866-.582-3.082 0-1.25.201-2.29.603-3.118.403-.834.938-1.456 1.606-1.868a4.107 4.107 0 0 1 2.208-.625c.611 0 1.12.104 1.527.312.412.204.744.46.995.767.255.303.45.602.582.895h.092v-5.468h3.019V330h-2.983v-1.747h-.128a3.897 3.897 0 0 1-.604.902 2.995 2.995 0 0 1-1.001.731c-.407.194-.904.292-1.492.292Zm.959-2.408c.488 0 .9-.133 1.236-.398.341-.27.601-.646.781-1.129.185-.483.277-1.049.277-1.698 0-.648-.09-1.212-.27-1.69-.179-.478-.44-.847-.781-1.108-.341-.26-.755-.391-1.243-.391-.497 0-.916.135-1.257.405-.341.27-.599.644-.774 1.122-.175.479-.263 1.033-.263 1.662 0 .635.088 1.196.263 1.684.18.483.438.861.774 1.136.341.27.76.405 1.257.405Zm-100.869 15.868c-.057-.573-.301-1.018-.731-1.335-.431-.318-1.016-.476-1.755-.476-.502 0-.925.071-1.271.213-.346.137-.611.329-.795.575-.18.246-.27.526-.27.838-.01.26.045.488.163.682.123.194.291.362.504.504.213.137.46.258.739.362.279.1.578.185.895.256l1.307.313a9.198 9.198 0 0 1 1.747.568c.53.236.989.528 1.378.873.388.346.689.753.902 1.222.217.469.329 1.006.333 1.612-.004.89-.232 1.662-.681 2.315-.445.649-1.089 1.153-1.932 1.513-.838.355-1.849.533-3.033.533-1.174 0-2.197-.18-3.068-.54-.866-.36-1.544-.892-2.031-1.598-.483-.71-.737-1.588-.76-2.635h2.976c.033.488.172.895.419 1.222a2.32 2.32 0 0 0 1.001.731c.421.161.897.242 1.428.242.52 0 .973-.076 1.356-.227.388-.152.689-.363.902-.633.213-.269.32-.58.32-.93a1.21 1.21 0 0 0-.291-.824c-.19-.222-.469-.412-.838-.568a8.601 8.601 0 0 0-1.343-.426l-1.584-.398c-1.226-.298-2.194-.765-2.904-1.399-.711-.635-1.063-1.489-1.059-2.564-.004-.881.23-1.65.703-2.308.479-.658 1.134-1.172 1.968-1.541.833-.37 1.78-.554 2.841-.554 1.079 0 2.021.184 2.826.554.81.369 1.44.883 1.89 1.541.449.658.681 1.42.696 2.287h-2.948ZM407.297 354v-10.909h3.026V354h-3.026Zm1.52-12.315c-.45 0-.836-.15-1.158-.448a1.45 1.45 0 0 1-.475-1.086c0-.417.158-.775.475-1.073a1.63 1.63 0 0 1 1.158-.454c.45 0 .833.151 1.151.454.322.298.483.656.483 1.073 0 .421-.161.783-.483 1.086a1.623 1.623 0 0 1-1.151.448ZM412.746 354v-10.909h2.884v1.925h.128a3.022 3.022 0 0 1 1.136-1.513c.53-.37 1.165-.554 1.904-.554.748 0 1.384.187 1.91.561.526.369.876.871 1.051 1.506h.114a2.902 2.902 0 0 1 1.207-1.499c.587-.379 1.281-.568 2.081-.568 1.018 0 1.844.324 2.479.973.639.644.959 1.558.959 2.741V354h-3.019v-6.74c0-.606-.161-1.061-.483-1.364-.322-.303-.724-.454-1.207-.454-.549 0-.978.175-1.286.525-.307.346-.461.803-.461 1.371V354h-2.934v-6.804c0-.535-.153-.961-.461-1.278-.303-.318-.703-.476-1.2-.476-.337 0-.64.085-.91.255a1.76 1.76 0 0 0-.632.704c-.156.298-.234.648-.234 1.051V354h-3.026Zm18.243 4.091v-15h2.983v1.832h.134c.133-.293.325-.592.576-.895.255-.307.587-.563.994-.767.412-.208.923-.312 1.534-.312.796 0 1.53.208 2.202.625.672.412 1.21 1.034 1.612 1.868.403.828.604 1.868.604 3.118 0 1.216-.197 2.244-.59 3.082-.388.833-.918 1.465-1.591 1.896a4.082 4.082 0 0 1-2.244.64c-.587 0-1.087-.098-1.499-.292a3.1 3.1 0 0 1-1.001-.731 3.764 3.764 0 0 1-.597-.902h-.092v5.838h-3.025Zm2.961-9.546c0 .649.09 1.215.27 1.698.18.483.44.859.781 1.129.341.265.756.398 1.243.398.493 0 .909-.135 1.25-.405.341-.275.599-.653.774-1.136.18-.488.27-1.049.27-1.684 0-.629-.087-1.183-.262-1.662-.176-.478-.434-.852-.775-1.122-.341-.27-.76-.405-1.257-.405-.492 0-.909.131-1.25.391-.336.261-.594.63-.774 1.108-.18.478-.27 1.042-.27 1.69Zm12.72-9.09V354h-3.025v-14.545h3.025ZM449.094 354v-10.909h3.026V354h-3.026Zm1.52-12.315c-.45 0-.836-.15-1.158-.448a1.45 1.45 0 0 1-.476-1.086c0-.417.159-.775.476-1.073a1.63 1.63 0 0 1 1.158-.454c.45 0 .833.151 1.151.454.321.298.482.656.482 1.073 0 .421-.161.783-.482 1.086a1.623 1.623 0 0 1-1.151.448Zm8.858 12.528c-1.117 0-2.078-.237-2.883-.71a4.8 4.8 0 0 1-1.847-1.989c-.426-.847-.639-1.823-.639-2.926 0-1.117.215-2.098.646-2.94a4.807 4.807 0 0 1 1.854-1.982c.8-.478 1.752-.717 2.855-.717.952 0 1.785.173 2.5.518a4.176 4.176 0 0 1 1.697 1.456c.417.625.647 1.359.689 2.202h-2.855c-.08-.545-.293-.983-.639-1.314-.341-.336-.788-.504-1.342-.504-.469 0-.879.128-1.229.383-.346.251-.615.618-.81 1.101-.194.483-.291 1.068-.291 1.754 0 .696.095 1.288.284 1.776.194.488.467.859.817 1.115.35.256.76.384 1.229.384.345 0 .656-.071.93-.214.28-.142.509-.348.689-.617.185-.275.305-.604.362-.988h2.855c-.047.834-.274 1.568-.681 2.202a4.12 4.12 0 0 1-1.669 1.477c-.711.355-1.551.533-2.522.533Zm6.81-.213v-10.909h3.025V354h-3.025Zm1.519-12.315c-.449 0-.835-.15-1.157-.448a1.45 1.45 0 0 1-.476-1.086c0-.417.159-.775.476-1.073a1.63 1.63 0 0 1 1.157-.454c.45 0 .834.151 1.151.454.322.298.483.656.483 1.073 0 .421-.161.783-.483 1.086a1.621 1.621 0 0 1-1.151.448Zm9.732 1.406v2.273h-6.569v-2.273h6.569Zm-5.078-2.614h3.026v10.171c0 .279.042.497.128.653a.702.702 0 0 0 .355.32c.156.061.336.092.54.092.142 0 .284-.012.426-.035.142-.029.251-.05.326-.064l.476 2.251a8.321 8.321 0 0 1-.639.163 5.053 5.053 0 0 1-1.001.121c-.73.029-1.369-.069-1.918-.291a2.674 2.674 0 0 1-1.271-1.037c-.303-.469-.453-1.061-.448-1.776v-10.568Zm8.917 17.614c-.383 0-.743-.031-1.079-.092a3.931 3.931 0 0 1-.824-.221l.682-2.258c.355.109.674.168.958.177.289.01.538-.056.746-.198.213-.143.386-.384.519-.725l.177-.462-3.913-11.221h3.182l2.258 8.011h.114l2.28-8.011h3.203l-4.24 12.088a5.1 5.1 0 0 1-.831 1.534c-.346.44-.784.779-1.314 1.016-.531.241-1.17.362-1.918.362Zm45.854-103.708h-2.177a2.128 2.128 0 0 0-.244-.751 1.922 1.922 0 0 0-.472-.567 2.108 2.108 0 0 0-.667-.358 2.566 2.566 0 0 0-.81-.124c-.527 0-.986.131-1.377.393-.391.258-.694.636-.91 1.133-.215.494-.323 1.094-.323 1.8 0 .726.108 1.336.323 1.83.219.493.524.866.915 1.118.391.252.843.378 1.357.378.289 0 .555-.038.801-.114.248-.076.469-.188.661-.333.192-.15.351-.33.477-.542.129-.212.219-.454.269-.726l2.177.01a3.938 3.938 0 0 1-.422 1.352 4.07 4.07 0 0 1-.9 1.158 4.224 4.224 0 0 1-1.343.806c-.517.195-1.102.293-1.755.293-.908 0-1.72-.205-2.436-.616-.712-.411-1.276-1.006-1.69-1.785-.411-.779-.617-1.722-.617-2.829 0-1.11.209-2.055.627-2.834.418-.779.984-1.372 1.7-1.78.716-.411 1.521-.616 2.416-.616.59 0 1.137.083 1.641.249.507.165.956.407 1.347.725.391.315.71.701.955 1.159.248.457.408.981.477 1.571Zm4.954 6.766c-.772 0-1.44-.164-2.003-.492a3.367 3.367 0 0 1-1.298-1.382c-.305-.593-.457-1.281-.457-2.063 0-.789.152-1.479.457-2.069a3.331 3.331 0 0 1 1.298-1.382c.563-.331 1.231-.497 2.003-.497.773 0 1.439.166 1.999.497.563.328.998.789 1.302 1.382.305.59.458 1.28.458 2.069 0 .782-.153 1.47-.458 2.063a3.35 3.35 0 0 1-1.302 1.382c-.56.328-1.226.492-1.999.492Zm.01-1.64c.352 0 .645-.1.88-.299.236-.202.413-.477.532-.825.123-.348.184-.744.184-1.188 0-.444-.061-.84-.184-1.188-.119-.348-.296-.624-.532-.826-.235-.202-.528-.303-.88-.303-.354 0-.653.101-.895.303a1.875 1.875 0 0 0-.542.826 3.662 3.662 0 0 0-.179 1.188c0 .444.06.84.179 1.188.123.348.304.623.542.825.242.199.541.299.895.299Zm5.126 1.491v-7.636h2.018v1.347h.09c.159-.447.424-.8.795-1.059.372-.259.816-.388 1.333-.388.523 0 .969.131 1.337.393.368.258.613.61.736 1.054h.079c.156-.438.438-.787.846-1.049.411-.265.896-.398 1.456-.398.713 0 1.291.227 1.735.681.448.451.672 1.091.672 1.919V261H546.3v-4.718c0-.424-.113-.742-.338-.955a1.189 1.189 0 0 0-.846-.318c-.384 0-.684.123-.899.368-.216.242-.324.562-.324.96V261h-2.053v-4.763c0-.374-.108-.673-.323-.895-.212-.222-.492-.333-.84-.333-.236 0-.448.06-.637.179a1.23 1.23 0 0 0-.442.492 1.57 1.57 0 0 0-.164.736V261h-2.118Zm12.769 2.864v-10.5h2.089v1.282h.094c.093-.205.227-.414.403-.626a2.11 2.11 0 0 1 .696-.537c.288-.146.646-.219 1.074-.219.556 0 1.07.146 1.541.438.47.288.847.724 1.128 1.307.282.58.423 1.308.423 2.183 0 .852-.138 1.571-.413 2.157-.271.584-.643 1.026-1.113 1.328a2.862 2.862 0 0 1-1.571.447c-.411 0-.761-.068-1.049-.204a2.147 2.147 0 0 1-.701-.512 2.564 2.564 0 0 1-.418-.631h-.065v4.087h-2.118Zm2.074-6.682c0 .454.063.85.189 1.188.126.338.308.602.546.791.239.185.529.278.87.278.345 0 .637-.095.875-.283.239-.193.42-.458.542-.796a3.39 3.39 0 0 0 .189-1.178 3.37 3.37 0 0 0-.184-1.164 1.728 1.728 0 0 0-.542-.785c-.238-.189-.532-.283-.88-.283-.344 0-.636.091-.875.273-.235.182-.415.441-.541.776-.126.334-.189.729-.189 1.183Zm8.904-6.364V261h-2.118v-10.182h2.118Zm5.176 10.331c-.785 0-1.461-.159-2.028-.477a3.28 3.28 0 0 1-1.303-1.362c-.304-.59-.457-1.288-.457-2.093 0-.786.153-1.475.457-2.069a3.39 3.39 0 0 1 1.288-1.387c.557-.331 1.21-.497 1.959-.497.504 0 .973.081 1.407.244a3.11 3.11 0 0 1 1.143.721c.328.321.584.726.766 1.213.182.484.273 1.05.273 1.7v.582h-6.448v-1.313h4.455c0-.305-.066-.575-.199-.81a1.435 1.435 0 0 0-.552-.552 1.572 1.572 0 0 0-.81-.204c-.322 0-.607.075-.855.224a1.562 1.562 0 0 0-.577.592 1.667 1.667 0 0 0-.214.82v1.248c0 .378.07.704.209.979.142.275.343.487.601.636.259.15.566.224.92.224.236 0 .451-.033.647-.099a1.297 1.297 0 0 0 .82-.786l1.959.13c-.1.47-.304.881-.612 1.232-.305.348-.699.62-1.183.816-.481.192-1.036.288-1.666.288Zm6.521-7.785 1.402 2.669 1.436-2.669h2.173l-2.212 3.818 2.272 3.818h-2.163l-1.506-2.64-1.482 2.64h-2.187l2.267-3.818-2.188-3.818h2.188Zm6.269 7.636v-7.636h2.118V261h-2.118Zm1.064-8.621c-.315 0-.585-.104-.811-.313a1.016 1.016 0 0 1-.333-.761c0-.291.111-.541.333-.75.226-.212.496-.318.811-.318.315 0 .583.106.805.318a.986.986 0 0 1 .338.75c0 .295-.112.549-.338.761-.222.209-.49.313-.805.313Zm6.812.985v1.591h-4.599v-1.591h4.599Zm-3.555-1.83h2.118v7.119c0 .196.03.348.09.458.059.106.142.18.248.224.11.043.236.064.378.064.1 0 .199-.008.299-.025.099-.02.175-.035.228-.044l.333 1.576a6.018 6.018 0 0 1-.447.114 3.626 3.626 0 0 1-.701.084c-.511.02-.958-.048-1.342-.203a1.871 1.871 0 0 1-.89-.726c-.213-.328-.317-.743-.314-1.243v-7.398Zm6.242 12.33c-.268 0-.52-.022-.755-.065a2.76 2.76 0 0 1-.577-.154l.477-1.581c.249.076.472.118.671.124a.853.853 0 0 0 .522-.139c.149-.099.27-.268.363-.507l.125-.323-2.74-7.855h2.227l1.581 5.608h.08l1.596-5.608h2.242l-2.968 8.461a3.55 3.55 0 0 1-.582 1.074 2.389 2.389 0 0 1-.919.711c-.372.169-.819.254-1.343.254Zm-298.145-10.118c-.04-.401-.21-.712-.512-.934-.301-.222-.711-.333-1.228-.333-.351 0-.648.049-.89.149-.242.096-.427.23-.557.403a.971.971 0 0 0-.188.586.832.832 0 0 0 .114.477c.086.136.204.254.353.353.149.097.321.181.517.254.195.07.404.129.626.179l.915.219a6.47 6.47 0 0 1 1.223.397c.371.166.693.37.965.612.271.242.482.527.631.855.152.328.23.704.234 1.129-.004.623-.163 1.163-.478 1.62-.311.454-.762.807-1.352 1.059-.587.249-1.294.373-2.123.373-.822 0-1.538-.126-2.147-.378-.607-.252-1.081-.624-1.422-1.118-.338-.497-.516-1.112-.532-1.845h2.083c.023.342.121.627.293.855.176.226.409.396.701.512.295.113.628.169.999.169.365 0 .682-.053.95-.159a1.45 1.45 0 0 0 .631-.442c.15-.189.224-.406.224-.651a.846.846 0 0 0-.204-.577c-.132-.156-.328-.288-.586-.398a5.996 5.996 0 0 0-.94-.298l-1.109-.278c-.858-.209-1.536-.536-2.033-.98-.497-.444-.744-1.042-.741-1.795-.003-.616.161-1.155.492-1.615.335-.461.794-.821 1.377-1.079.584-.259 1.247-.388 1.989-.388.756 0 1.415.129 1.979.388.567.258 1.007.618 1.322 1.079.315.46.478.994.487 1.6h-2.063Zm3.611 7.254v-7.636h2.118V261h-2.118Zm1.064-8.621c-.315 0-.585-.104-.811-.313a1.016 1.016 0 0 1-.333-.761c0-.291.111-.541.333-.75.226-.212.496-.318.811-.318.315 0 .583.106.805.318a.986.986 0 0 1 .338.75c0 .295-.112.549-.338.761-.222.209-.49.313-.805.313Zm2.75 8.621v-7.636h2.019v1.347h.089c.159-.447.425-.8.796-1.059.371-.259.815-.388 1.332-.388.524 0 .97.131 1.337.393.368.258.614.61.736 1.054h.08a2.03 2.03 0 0 1 .845-1.049c.411-.265.897-.398 1.457-.398.712 0 1.291.227 1.735.681.447.451.671 1.091.671 1.919V261h-2.113v-4.718c0-.424-.113-.742-.338-.955a1.185 1.185 0 0 0-.845-.318c-.385 0-.685.123-.9.368-.216.242-.323.562-.323.96V261h-2.054v-4.763c0-.374-.107-.673-.323-.895-.212-.222-.492-.333-.84-.333-.235 0-.447.06-.636.179-.186.116-.333.28-.443.492a1.57 1.57 0 0 0-.164.736V261h-2.118Zm12.77 2.864v-10.5h2.088v1.282h.094c.093-.205.227-.414.403-.626a2.11 2.11 0 0 1 .696-.537c.288-.146.646-.219 1.074-.219.557 0 1.071.146 1.541.438.471.288.847.724 1.129 1.307.281.58.422 1.308.422 2.183 0 .852-.137 1.571-.412 2.157-.272.584-.643 1.026-1.114 1.328a2.86 2.86 0 0 1-1.571.447c-.411 0-.761-.068-1.049-.204a2.147 2.147 0 0 1-.701-.512 2.622 2.622 0 0 1-.418-.631h-.064v4.087h-2.118Zm2.073-6.682c0 .454.063.85.189 1.188.126.338.308.602.547.791.238.185.528.278.87.278.345 0 .636-.095.875-.283a1.78 1.78 0 0 0 .542-.796 3.39 3.39 0 0 0 .189-1.178c0-.441-.062-.829-.184-1.164a1.744 1.744 0 0 0-.542-.785c-.239-.189-.532-.283-.88-.283-.345 0-.637.091-.875.273-.235.182-.416.441-.542.776-.126.334-.189.729-.189 1.183Zm8.904-6.364V261h-2.118v-10.182h2.118ZM324.316 261v-7.636h2.118V261h-2.118Zm1.064-8.621c-.315 0-.585-.104-.811-.313a1.016 1.016 0 0 1-.333-.761c0-.291.111-.541.333-.75.226-.212.496-.318.811-.318.314 0 .583.106.805.318a.99.99 0 0 1 .338.75c0 .295-.113.549-.338.761a1.133 1.133 0 0 1-.805.313Zm6.2 8.77c-.782 0-1.455-.166-2.018-.497a3.368 3.368 0 0 1-1.293-1.392c-.298-.593-.447-1.276-.447-2.048 0-.783.151-1.469.452-2.059a3.368 3.368 0 0 1 1.298-1.387c.56-.334 1.226-.502 1.998-.502.667 0 1.25.121 1.75.363a2.93 2.93 0 0 1 1.189 1.019c.291.438.452.952.482 1.542h-1.999c-.056-.382-.205-.688-.447-.92-.239-.236-.552-.353-.94-.353-.328 0-.615.089-.86.268-.242.176-.431.433-.567.771-.135.338-.203.747-.203 1.228 0 .487.066.901.198 1.243.136.341.327.601.572.78.245.179.532.269.86.269.242 0 .459-.05.652-.149.195-.1.356-.244.482-.433a1.65 1.65 0 0 0 .253-.691h1.999a3.128 3.128 0 0 1-.477 1.541 2.876 2.876 0 0 1-1.169 1.034c-.497.249-1.085.373-1.765.373Zm4.767-.149v-7.636h2.118V261h-2.118Zm1.064-8.621c-.315 0-.585-.104-.811-.313a1.016 1.016 0 0 1-.333-.761c0-.291.111-.541.333-.75.226-.212.496-.318.811-.318.315 0 .583.106.805.318a.986.986 0 0 1 .338.75c0 .295-.112.549-.338.761-.222.209-.49.313-.805.313Zm6.812.985v1.591h-4.599v-1.591h4.599Zm-3.555-1.83h2.118v7.119c0 .196.03.348.09.458.06.106.142.18.248.224.11.043.236.064.378.064.1 0 .199-.008.299-.025.099-.02.175-.035.228-.044l.333 1.576a6.018 6.018 0 0 1-.447.114 3.626 3.626 0 0 1-.701.084c-.51.02-.958-.048-1.342-.203a1.871 1.871 0 0 1-.89-.726c-.212-.328-.317-.743-.314-1.243v-7.398Zm6.242 12.33c-.268 0-.52-.022-.755-.065a2.76 2.76 0 0 1-.577-.154l.477-1.581c.249.076.473.118.671.124a.85.85 0 0 0 .522-.139c.15-.099.271-.268.363-.507l.125-.323-2.74-7.855h2.228l1.581 5.608h.079l1.596-5.608h2.242l-2.968 8.461a3.528 3.528 0 0 1-.582 1.074 2.389 2.389 0 0 1-.919.711c-.372.169-.819.254-1.343.254Zm49.91 190.883c-.039-.402-.21-.713-.512-.935-.301-.222-.711-.333-1.228-.333-.351 0-.648.049-.89.149-.242.096-.427.23-.556.403a.968.968 0 0 0-.189.586.835.835 0 0 0 .114.478c.086.135.204.253.353.353.149.096.321.18.517.253.196.07.404.129.626.179l.915.219a6.4 6.4 0 0 1 1.223.398c.371.165.693.369.965.611.271.242.482.527.631.855.153.328.23.704.234 1.129-.004.623-.163 1.163-.478 1.62-.311.454-.762.807-1.352 1.059-.586.249-1.294.373-2.123.373-.822 0-1.538-.126-2.147-.378-.607-.251-1.081-.624-1.422-1.118-.338-.497-.516-1.112-.532-1.845h2.083c.023.342.121.627.293.855.176.226.409.397.701.513.295.112.628.169.999.169.365 0 .682-.053.95-.16a1.45 1.45 0 0 0 .631-.442c.15-.189.224-.406.224-.651a.846.846 0 0 0-.204-.577c-.132-.156-.328-.288-.586-.398a5.996 5.996 0 0 0-.94-.298l-1.109-.278c-.858-.209-1.536-.536-2.033-.98-.497-.444-.744-1.042-.741-1.795-.003-.616.161-1.155.492-1.615.335-.461.794-.821 1.378-1.079.583-.259 1.246-.388 1.988-.388.756 0 1.415.129 1.979.388.567.258 1.007.618 1.322 1.079.315.46.478.994.488 1.601h-2.064Zm7.061 7.402c-.772 0-1.44-.164-2.003-.492a3.367 3.367 0 0 1-1.298-1.382c-.305-.593-.457-1.281-.457-2.063 0-.789.152-1.479.457-2.068a3.334 3.334 0 0 1 1.298-1.383c.563-.331 1.231-.497 2.003-.497s1.439.166 1.999.497c.563.329.997.789 1.302 1.383.305.589.458 1.279.458 2.068 0 .782-.153 1.47-.458 2.063a3.357 3.357 0 0 1-1.302 1.382c-.56.328-1.227.492-1.999.492Zm.01-1.64c.351 0 .645-.1.88-.299.235-.202.413-.477.532-.825.123-.348.184-.744.184-1.188 0-.444-.061-.84-.184-1.188a1.852 1.852 0 0 0-.532-.826c-.235-.202-.529-.303-.88-.303-.354 0-.653.101-.895.303a1.875 1.875 0 0 0-.542.826 3.662 3.662 0 0 0-.179 1.188c0 .444.06.84.179 1.188.123.348.304.623.542.825.242.199.541.299.895.299Zm5.126 4.355v-10.5h2.088v1.282h.094c.093-.205.227-.414.403-.626.179-.215.411-.394.696-.537.288-.146.646-.219 1.074-.219.557 0 1.071.146 1.541.438.471.288.847.724 1.129 1.307.281.58.422 1.308.422 2.183 0 .852-.137 1.571-.412 2.157-.272.584-.643 1.026-1.114 1.328a2.86 2.86 0 0 1-1.571.447c-.411 0-.761-.068-1.049-.203a2.163 2.163 0 0 1-.701-.513 2.622 2.622 0 0 1-.418-.631h-.064v4.087h-2.118Zm2.073-6.682c0 .454.063.85.189 1.188.126.338.308.602.547.791.238.185.528.278.87.278.345 0 .636-.094.875-.283a1.78 1.78 0 0 0 .542-.796 3.39 3.39 0 0 0 .189-1.178c0-.441-.062-.829-.184-1.163a1.742 1.742 0 0 0-.542-.786c-.239-.189-.532-.283-.88-.283-.345 0-.637.091-.875.273-.235.182-.416.441-.542.776-.126.334-.189.729-.189 1.183Zm8.904-.597V462h-2.118v-10.182h2.058v3.893h.09a2.16 2.16 0 0 1 .835-1.059c.385-.258.867-.388 1.447-.388.53 0 .993.116 1.387.348.398.229.706.559.925.99.222.427.331.939.328 1.536V462h-2.118v-4.484c.003-.471-.116-.837-.358-1.099-.239-.262-.573-.393-1.004-.393-.289 0-.544.062-.766.184a1.307 1.307 0 0 0-.517.537 1.809 1.809 0 0 0-.189.84Zm6.619 4.415v-7.636h2.117V462h-2.117Zm1.063-8.621a1.15 1.15 0 0 1-.81-.313 1.016 1.016 0 0 1-.333-.761c0-.291.111-.541.333-.75.225-.212.496-.318.81-.318.315 0 .584.106.806.318a.99.99 0 0 1 .338.75c0 .295-.113.549-.338.761a1.133 1.133 0 0 1-.806.313Zm9.105 3.162-1.939.12a1.008 1.008 0 0 0-.214-.448 1.137 1.137 0 0 0-.433-.323 1.464 1.464 0 0 0-.631-.124c-.328 0-.605.069-.83.208-.226.136-.338.319-.338.547 0 .183.073.337.219.463.145.126.396.227.75.303l1.382.278c.743.153 1.296.398 1.661.736.364.338.547.782.547 1.333 0 .5-.148.939-.443 1.317-.291.378-.692.673-1.203.885-.507.209-1.092.313-1.755.313-1.011 0-1.816-.21-2.416-.631a2.46 2.46 0 0 1-1.049-1.73l2.083-.11c.063.309.215.544.457.706.242.159.552.239.93.239.371 0 .67-.071.895-.214.229-.146.345-.333.348-.562a.582.582 0 0 0-.244-.472c-.159-.126-.404-.222-.735-.288l-1.323-.264c-.746-.149-1.301-.407-1.665-.775-.362-.368-.542-.837-.542-1.407 0-.491.132-.913.398-1.268.268-.355.644-.628 1.128-.82.487-.193 1.057-.289 1.71-.289.965 0 1.724.204 2.277.612.557.407.882.963.975 1.665Zm5.569-2.177v1.591h-4.599v-1.591h4.599Zm-3.555-1.83h2.118v7.119c0 .196.03.348.09.458.059.106.142.18.248.224.11.043.236.064.378.064.1 0 .199-.008.299-.025l.228-.044.333 1.576a6.018 6.018 0 0 1-.447.114 3.549 3.549 0 0 1-.701.084c-.511.02-.958-.048-1.342-.203a1.871 1.871 0 0 1-.89-.726c-.212-.328-.317-.743-.314-1.243v-7.398ZM443.73 462v-7.636h2.118V462h-2.118Zm1.064-8.621c-.315 0-.585-.104-.811-.313a1.016 1.016 0 0 1-.333-.761c0-.291.111-.541.333-.75.226-.212.496-.318.811-.318.315 0 .583.106.805.318a.99.99 0 0 1 .338.75c0 .295-.113.549-.338.761-.222.209-.49.313-.805.313Zm6.2 8.77c-.782 0-1.455-.166-2.018-.497a3.368 3.368 0 0 1-1.293-1.392c-.298-.593-.447-1.276-.447-2.048 0-.782.151-1.469.452-2.059a3.368 3.368 0 0 1 1.298-1.387c.56-.334 1.226-.502 1.999-.502.666 0 1.249.121 1.75.363.5.242.896.582 1.188 1.019.291.438.452.952.482 1.542h-1.999c-.056-.382-.205-.688-.447-.92-.239-.235-.552-.353-.94-.353-.328 0-.614.089-.86.268-.242.176-.431.433-.566.771-.136.338-.204.747-.204 1.228 0 .487.066.901.199 1.243.135.341.326.601.571.78.246.179.532.269.86.269.242 0 .459-.05.652-.149.195-.1.356-.244.482-.433.129-.192.214-.422.253-.691h1.999a3.128 3.128 0 0 1-.477 1.541 2.876 2.876 0 0 1-1.169 1.034c-.497.249-1.085.373-1.765.373Zm6.945-.005c-.488 0-.922-.084-1.303-.253a2.101 2.101 0 0 1-.905-.761c-.219-.338-.328-.759-.328-1.263 0-.424.078-.78.234-1.069.155-.288.368-.52.636-.696a3.09 3.09 0 0 1 .915-.397c.345-.09.706-.153 1.084-.189.444-.047.802-.09 1.074-.13.271-.043.469-.106.591-.188a.415.415 0 0 0 .184-.368v-.03c0-.315-.099-.559-.298-.731-.196-.172-.474-.259-.835-.259-.382 0-.685.085-.91.254a1.168 1.168 0 0 0-.448.626l-1.958-.159c.099-.464.295-.865.586-1.203a2.817 2.817 0 0 1 1.129-.785c.464-.186 1.001-.279 1.611-.279.424 0 .83.05 1.218.149a3.2 3.2 0 0 1 1.039.463c.305.209.545.477.721.805.175.325.263.714.263 1.168V462h-2.009v-1.059h-.059a2.176 2.176 0 0 1-.492.632 2.31 2.31 0 0 1-.741.422c-.288.1-.622.149-.999.149Zm.606-1.461c.312 0 .587-.062.825-.184.239-.126.426-.295.562-.507a1.31 1.31 0 0 0 .204-.721v-.811a1.149 1.149 0 0 1-.273.12 5.264 5.264 0 0 1-.383.094c-.143.027-.285.051-.428.075l-.388.054a2.678 2.678 0 0 0-.651.174 1.05 1.05 0 0 0-.432.323.79.79 0 0 0-.155.498c0 .288.105.508.314.661.212.149.48.224.805.224Zm9.399-6.319v1.591h-4.599v-1.591h4.599Zm-3.555-1.83h2.118v7.119c0 .196.03.348.09.458.059.106.142.18.248.224.11.043.235.064.378.064.099 0 .199-.008.298-.025l.229-.044.333 1.576a6.018 6.018 0 0 1-.447.114 3.559 3.559 0 0 1-.701.084c-.511.02-.958-.048-1.343-.203a1.88 1.88 0 0 1-.89-.726c-.212-.328-.316-.743-.313-1.243v-7.398Zm4.935 9.466v-7.636h2.117V462h-2.117Zm1.063-8.621a1.15 1.15 0 0 1-.81-.313 1.016 1.016 0 0 1-.333-.761c0-.291.111-.541.333-.75.225-.212.496-.318.81-.318.315 0 .584.106.806.318a.99.99 0 0 1 .338.75c0 .295-.113.549-.338.761a1.133 1.133 0 0 1-.806.313Zm6.201 8.77c-.772 0-1.44-.164-2.003-.492a3.367 3.367 0 0 1-1.298-1.382c-.305-.593-.457-1.281-.457-2.063 0-.789.152-1.479.457-2.068a3.334 3.334 0 0 1 1.298-1.383c.563-.331 1.231-.497 2.003-.497.773 0 1.439.166 1.999.497.563.329.997.789 1.302 1.383.305.589.458 1.279.458 2.068 0 .782-.153 1.47-.458 2.063a3.357 3.357 0 0 1-1.302 1.382c-.56.328-1.226.492-1.999.492Zm.01-1.64c.352 0 .645-.1.88-.299.235-.202.413-.477.532-.825.123-.348.184-.744.184-1.188 0-.444-.061-.84-.184-1.188a1.852 1.852 0 0 0-.532-.826c-.235-.202-.528-.303-.88-.303-.354 0-.653.101-.895.303a1.875 1.875 0 0 0-.542.826 3.662 3.662 0 0 0-.179 1.188c0 .444.06.84.179 1.188.123.348.304.623.542.825.242.199.541.299.895.299Zm7.244-2.924V462h-2.118v-7.636h2.018v1.347h.09c.169-.444.452-.795.85-1.054.398-.262.88-.393 1.447-.393.53 0 .992.116 1.387.348.394.232.701.564.92.995.218.427.328.938.328 1.531V462h-2.118v-4.484c.003-.468-.116-.832-.358-1.094-.242-.265-.575-.398-.999-.398-.286 0-.537.062-.756.184a1.279 1.279 0 0 0-.507.537c-.12.232-.181.512-.184.84Z" fill="#fff"/><path d="M198.702 425h-5.157v-14.545h5.199c1.463 0 2.723.291 3.779.873a5.895 5.895 0 0 1 2.436 2.493c.573 1.084.859 2.382.859 3.892 0 1.515-.286 2.817-.859 3.906a5.9 5.9 0 0 1-2.451 2.507c-1.06.583-2.329.874-3.806.874Zm-2.081-2.635h1.953c.909 0 1.674-.161 2.294-.483.625-.327 1.094-.831 1.406-1.513.317-.686.476-1.572.476-2.656 0-1.075-.159-1.953-.476-2.635-.312-.682-.779-1.184-1.399-1.506-.62-.322-1.385-.483-2.294-.483h-1.96v9.276ZM208.039 425v-10.909h3.026V425h-3.026Zm1.52-12.315c-.45 0-.835-.15-1.157-.448a1.447 1.447 0 0 1-.476-1.086c0-.417.158-.775.476-1.073a1.628 1.628 0 0 1 1.157-.454c.45 0 .834.151 1.151.454.322.298.483.656.483 1.073 0 .421-.161.783-.483 1.086a1.621 1.621 0 0 1-1.151.448Zm13.006 4.517-2.77.17a1.426 1.426 0 0 0-.305-.639 1.623 1.623 0 0 0-.618-.462 2.103 2.103 0 0 0-.902-.177c-.469 0-.864.099-1.186.298-.322.194-.483.455-.483.781a.84.84 0 0 0 .313.661c.208.18.565.324 1.072.433l1.974.398c1.061.218 1.852.568 2.373 1.051.52.483.781 1.117.781 1.903 0 .715-.211 1.343-.632 1.882-.417.54-.99.962-1.719 1.265-.724.298-1.56.447-2.507.447-1.444 0-2.595-.301-3.452-.902-.852-.606-1.352-1.43-1.498-2.472l2.975-.156c.09.441.308.777.654 1.009.346.227.788.341 1.328.341.53 0 .956-.102 1.278-.306.327-.208.493-.476.498-.802a.836.836 0 0 0-.348-.675c-.228-.18-.578-.317-1.052-.412l-1.889-.376c-1.065-.213-1.858-.583-2.379-1.108-.516-.526-.774-1.196-.774-2.01 0-.701.189-1.305.568-1.811.384-.507.921-.898 1.612-1.172.696-.275 1.511-.412 2.443-.412 1.378 0 2.463.291 3.253.873.796.583 1.26 1.376 1.392 2.38Zm7.083 8.011c-1.117 0-2.079-.237-2.883-.71a4.794 4.794 0 0 1-1.847-1.989c-.426-.847-.639-1.823-.639-2.926 0-1.117.215-2.098.646-2.94a4.807 4.807 0 0 1 1.854-1.982c.8-.478 1.752-.717 2.855-.717.952 0 1.785.173 2.5.518a4.176 4.176 0 0 1 1.697 1.456c.417.625.647 1.359.689 2.202h-2.855c-.08-.545-.293-.983-.639-1.314-.341-.336-.788-.504-1.342-.504-.469 0-.879.128-1.229.383-.346.251-.616.618-.81 1.101-.194.483-.291 1.068-.291 1.754 0 .696.095 1.288.284 1.776.194.488.466.859.817 1.115.35.256.76.384 1.229.384.345 0 .655-.071.93-.214.279-.142.509-.348.689-.617.185-.275.305-.604.362-.988h2.855c-.047.834-.274 1.568-.682 2.202a4.107 4.107 0 0 1-1.669 1.477c-.71.355-1.55.533-2.521.533Zm11.738 0c-1.103 0-2.057-.234-2.862-.703a4.82 4.82 0 0 1-1.854-1.975c-.435-.847-.653-1.83-.653-2.947 0-1.127.218-2.112.653-2.955a4.762 4.762 0 0 1 1.854-1.974c.805-.473 1.759-.71 2.862-.71 1.104 0 2.055.237 2.855.71a4.74 4.74 0 0 1 1.861 1.974c.436.843.654 1.828.654 2.955 0 1.117-.218 2.1-.654 2.947a4.797 4.797 0 0 1-1.861 1.975c-.8.469-1.751.703-2.855.703Zm.015-2.344c.501 0 .92-.142 1.257-.426.336-.289.589-.682.76-1.179.175-.497.262-1.063.262-1.697 0-.635-.087-1.201-.262-1.698-.171-.497-.424-.89-.76-1.179-.337-.289-.756-.433-1.257-.433-.507 0-.933.144-1.279.433-.341.289-.599.682-.774 1.179-.17.497-.256 1.063-.256 1.698 0 .634.086 1.2.256 1.697.175.497.433.89.774 1.179.346.284.772.426 1.279.426Zm17.141-8.778L254.728 425h-3.409l-3.814-10.909h3.196l2.266 7.805h.113l2.259-7.805h3.203Zm6.168 11.122c-1.122 0-2.088-.227-2.898-.682a4.668 4.668 0 0 1-1.86-1.946c-.436-.843-.654-1.839-.654-2.99 0-1.122.218-2.107.654-2.954a4.825 4.825 0 0 1 1.839-1.982c.796-.473 1.728-.71 2.798-.71.72 0 1.39.116 2.01.348.625.227 1.17.57 1.634 1.03.469.459.833 1.037 1.094 1.733.26.691.39 1.501.39 2.429v.831h-9.211v-1.875h6.363c0-.436-.094-.822-.284-1.158a2.03 2.03 0 0 0-.788-.788 2.241 2.241 0 0 0-1.158-.292c-.459 0-.866.107-1.221.32-.351.208-.625.49-.824.845-.199.35-.301.741-.306 1.172v1.783c0 .539.1 1.006.299 1.399.203.393.49.696.859.909.369.213.807.32 1.314.32.336 0 .644-.048.923-.143.28-.094.519-.236.718-.426.198-.189.35-.421.454-.696l2.798.185a3.824 3.824 0 0 1-.873 1.761c-.436.497-.999.886-1.691 1.165-.686.275-1.479.412-2.379.412Zm6.982-.213v-10.909h2.933v1.903h.114c.198-.677.532-1.188 1.001-1.534a2.635 2.635 0 0 1 1.619-.525 4.545 4.545 0 0 1 .952.106v2.685a3.893 3.893 0 0 0-.589-.114 5.33 5.33 0 0 0-.689-.05c-.445 0-.843.098-1.194.292-.345.189-.62.454-.823.795a2.296 2.296 0 0 0-.299 1.179V425h-3.025Zm10.383 4.091c-.383 0-.743-.031-1.079-.092a3.931 3.931 0 0 1-.824-.221l.682-2.258c.355.109.674.168.958.177.289.01.538-.056.746-.198.213-.143.386-.384.519-.725l.177-.462-3.913-11.221h3.182l2.258 8.011h.114l2.28-8.011h3.203l-4.24 12.088a5.1 5.1 0 0 1-.831 1.534c-.346.44-.784.779-1.314 1.016-.53.241-1.17.362-1.918.362Zm315.297-13.544h-3.111a3.052 3.052 0 0 0-.348-1.073 2.714 2.714 0 0 0-.675-.809 2.967 2.967 0 0 0-.952-.512 3.649 3.649 0 0 0-1.157-.177c-.753 0-1.409.187-1.968.561-.558.369-.991.909-1.299 1.619-.308.706-.462 1.563-.462 2.571 0 1.037.154 1.908.462 2.614.312.705.748 1.238 1.307 1.598.558.36 1.205.54 1.939.54.411 0 .793-.055 1.143-.164a3 3 0 0 0 .945-.476 2.75 2.75 0 0 0 .681-.774c.185-.303.313-.648.384-1.037l3.111.015a5.637 5.637 0 0 1-.604 1.931 5.798 5.798 0 0 1-1.285 1.655 6.066 6.066 0 0 1-1.918 1.151c-.739.279-1.574.419-2.507.419-1.298 0-2.458-.294-3.48-.881-1.018-.587-1.823-1.437-2.415-2.55-.587-1.112-.881-2.459-.881-4.041 0-1.586.299-2.935.895-4.048.597-1.113 1.406-1.96 2.429-2.543 1.023-.587 2.173-.88 3.452-.88.843 0 1.624.118 2.344.355a5.914 5.914 0 0 1 1.924 1.037 5.31 5.31 0 0 1 1.364 1.655c.355.653.582 1.401.682 2.244Zm5.259 9.659c-.696 0-1.316-.121-1.861-.362a3.003 3.003 0 0 1-1.292-1.087c-.313-.483-.469-1.084-.469-1.804 0-.606.111-1.115.334-1.527.222-.412.525-.743.909-.994a4.378 4.378 0 0 1 1.307-.568 9.915 9.915 0 0 1 1.548-.27 40.18 40.18 0 0 0 1.534-.185c.388-.062.67-.151.845-.27.175-.118.263-.293.263-.525v-.043c0-.45-.142-.798-.426-1.044-.28-.246-.677-.369-1.193-.369-.545 0-.978.12-1.3.362a1.666 1.666 0 0 0-.639.895l-2.799-.228a3.81 3.81 0 0 1 .838-1.718c.417-.488.954-.862 1.613-1.122.662-.266 1.43-.398 2.301-.398.606 0 1.186.071 1.74.213a4.553 4.553 0 0 1 1.484.66c.436.299.779.682 1.03 1.151.251.464.376 1.02.376 1.669V425h-2.869v-1.513h-.085c-.175.341-.41.642-.703.902a3.266 3.266 0 0 1-1.058.604c-.412.142-.888.213-1.428.213Zm.866-2.088c.446 0 .838-.088 1.179-.263.341-.18.609-.421.803-.724a1.87 1.87 0 0 0 .291-1.03v-1.158a1.611 1.611 0 0 1-.39.171 7.568 7.568 0 0 1-.547.135 34 34 0 0 1-.611.106l-.554.078a3.74 3.74 0 0 0-.931.249 1.475 1.475 0 0 0-.617.461c-.147.19-.221.427-.221.711 0 .412.15.726.448.944.303.213.686.32 1.15.32Zm7.625 5.973v-15h2.983v1.832h.135a3.99 3.99 0 0 1 .575-.895c.256-.307.587-.563.994-.767.412-.208.924-.312 1.534-.312.796 0 1.53.208 2.202.625.672.412 1.21 1.034 1.612 1.868.403.828.604 1.868.604 3.118 0 1.216-.197 2.244-.59 3.082-.388.833-.918 1.465-1.59 1.896a4.087 4.087 0 0 1-2.245.64c-.587 0-1.086-.098-1.498-.292a3.105 3.105 0 0 1-1.002-.731 3.729 3.729 0 0 1-.596-.902h-.093v5.838h-3.025Zm2.961-9.546c0 .649.09 1.215.27 1.698.18.483.441.859.781 1.129.341.265.756.398 1.243.398.493 0 .909-.135 1.25-.405.341-.275.599-.653.775-1.136.179-.488.269-1.049.269-1.684 0-.629-.087-1.183-.262-1.662-.176-.478-.434-.852-.775-1.122-.34-.27-.759-.405-1.257-.405-.492 0-.909.131-1.25.391-.336.261-.594.63-.774 1.108-.18.478-.27 1.042-.27 1.69Zm12.806 5.661c-.696 0-1.317-.121-1.861-.362a3.006 3.006 0 0 1-1.293-1.087c-.312-.483-.468-1.084-.468-1.804 0-.606.111-1.115.333-1.527a2.71 2.71 0 0 1 .909-.994 4.4 4.4 0 0 1 1.307-.568 9.949 9.949 0 0 1 1.549-.27 40.433 40.433 0 0 0 1.534-.185c.388-.062.67-.151.845-.27.175-.118.263-.293.263-.525v-.043c0-.45-.142-.798-.426-1.044-.28-.246-.678-.369-1.194-.369-.544 0-.977.12-1.299.362a1.673 1.673 0 0 0-.64.895l-2.798-.228a3.81 3.81 0 0 1 .838-1.718c.417-.488.954-.862 1.612-1.122.663-.266 1.43-.398 2.302-.398.606 0 1.186.071 1.74.213a4.563 4.563 0 0 1 1.484.66c.436.299.779.682 1.03 1.151.251.464.376 1.02.376 1.669V425h-2.869v-1.513h-.085c-.176.341-.41.642-.703.902a3.261 3.261 0 0 1-1.059.604c-.412.142-.887.213-1.427.213Zm.866-2.088c.445 0 .838-.088 1.179-.263.341-.18.609-.421.803-.724a1.87 1.87 0 0 0 .291-1.03v-1.158a1.603 1.603 0 0 1-.391.171 7.44 7.44 0 0 1-.547.135c-.203.037-.407.073-.61.106l-.554.078a3.728 3.728 0 0 0-.931.249 1.485 1.485 0 0 0-.618.461c-.146.19-.22.427-.22.711 0 .412.149.726.448.944.303.213.686.32 1.15.32Zm7.681 1.882v-14.545h3.026v5.468h.092c.133-.293.325-.592.576-.895.255-.307.587-.563.994-.767.412-.208.923-.312 1.534-.312.795 0 1.529.208 2.202.625.672.412 1.209 1.034 1.612 1.868.402.828.604 1.868.604 3.118 0 1.216-.197 2.244-.59 3.082-.388.833-.918 1.465-1.591 1.896a4.084 4.084 0 0 1-2.244.64c-.587 0-1.087-.098-1.499-.292a3.1 3.1 0 0 1-1.001-.731 3.735 3.735 0 0 1-.597-.902h-.135V425h-2.983Zm2.962-5.455c0 .649.09 1.215.27 1.698.18.483.44.859.781 1.129.341.265.755.398 1.243.398.492 0 .909-.135 1.25-.405.341-.275.599-.653.774-1.136.18-.488.27-1.049.27-1.684 0-.629-.088-1.183-.263-1.662-.175-.478-.433-.852-.774-1.122-.341-.27-.76-.405-1.257-.405-.492 0-.909.131-1.25.391-.336.261-.594.63-.774 1.108-.18.478-.27 1.042-.27 1.69Zm9.696 5.455v-10.909h3.026V425h-3.026Zm1.52-12.315c-.45 0-.835-.15-1.157-.448a1.447 1.447 0 0 1-.476-1.086c0-.417.158-.775.476-1.073a1.628 1.628 0 0 1 1.157-.454c.45 0 .834.151 1.151.454.322.298.483.656.483 1.073 0 .421-.161.783-.483 1.086a1.621 1.621 0 0 1-1.151.448Zm6.955-2.23V425h-3.025v-14.545h3.025ZM658.993 425v-10.909h3.025V425h-3.025Zm1.52-12.315c-.45 0-.836-.15-1.158-.448a1.45 1.45 0 0 1-.476-1.086c0-.417.159-.775.476-1.073a1.63 1.63 0 0 1 1.158-.454c.45 0 .833.151 1.15.454.322.298.483.656.483 1.073 0 .421-.161.783-.483 1.086-.317.298-.7.448-1.15.448Zm9.732 1.406v2.273h-6.57v-2.273h6.57Zm-5.079-2.614h3.026v10.171c0 .279.043.497.128.653a.702.702 0 0 0 .355.32c.156.061.336.092.54.092.142 0 .284-.012.426-.035.142-.029.251-.05.327-.064l.475 2.251a8.321 8.321 0 0 1-.639.163 5.043 5.043 0 0 1-1.001.121c-.729.029-1.369-.069-1.918-.291a2.68 2.68 0 0 1-1.271-1.037c-.303-.469-.452-1.061-.448-1.776v-10.568Zm8.917 17.614c-.383 0-.743-.031-1.079-.092a3.931 3.931 0 0 1-.824-.221l.682-2.258c.355.109.674.168.959.177.288.01.537-.056.745-.198.213-.143.386-.384.519-.725l.177-.462-3.913-11.221h3.182l2.258 8.011h.114l2.28-8.011h3.203l-4.24 12.088a5.1 5.1 0 0 1-.831 1.534c-.346.44-.784.779-1.314 1.016-.53.241-1.17.362-1.918.362Z" fill="#1F1F1F"/></svg>