<svg viewBox="0 0 833.971 526.433" fill="none" stroke-linecap="square" stroke-miterlimit="10" xmlns="http://www.w3.org/2000/svg">
  <clipPath id="a">
    <path d="M0 0h833.971v526.433H0V0z"/>
  </clipPath>
  <g clip-path="url(#a)">
    <path fill="none" d="M0 0h833.971v526.433H0z"/>
    <path fill="#ead1dc" d="M61.505 137.486c0-34.721 28.147-62.868 62.868-62.868h585.225a62.867 62.867 0 0162.868 62.868v251.462c0 34.72-28.147 62.867-62.868 62.867H124.373c-34.721 0-62.868-28.147-62.868-62.867z" fill-rule="evenodd"/>
    <path stroke="#000" stroke-width="8" stroke-linejoin="round" stroke-linecap="butt" d="M61.505 137.486h0c0-34.721 28.147-62.868 62.868-62.868h585.225a62.867 62.867 0 0162.868 62.868v251.462c0 34.72-28.147 62.867-62.868 62.867H124.373c-34.721 0-62.868-28.147-62.868-62.867z"/>
    <path fill="#000" d="M110.336 129.9v-4.828h12.453v11.406q-1.812 1.766-5.265 3.11-3.438 1.328-6.97 1.328-4.5 0-7.843-1.875-3.328-1.89-5.015-5.39-1.672-3.517-1.672-7.642 0-4.468 1.875-7.937 1.875-3.484 5.484-5.344 2.75-1.422 6.86-1.422 5.328 0 8.328 2.235 3 2.234 3.859 6.187l-5.75 1.078q-.61-2.109-2.281-3.328-1.657-1.234-4.157-1.234-3.796 0-6.03 2.406-2.235 2.406-2.235 7.125 0 5.11 2.265 7.656 2.266 2.547 5.938 2.547 1.812 0 3.64-.703 1.829-.719 3.141-1.734v-3.64h-6.625zm23.004 10.531h-5.484v-20.75h5.093v2.953q1.313-2.093 2.36-2.75 1.047-.671 2.375-.671 1.875 0 3.61 1.046l-1.704 4.782q-1.39-.907-2.578-.907-1.156 0-1.953.641-.797.64-1.266 2.297-.453 1.656-.453 6.953v6.406zm9.05-10.672q0-2.734 1.345-5.28 1.343-2.563 3.812-3.907 2.469-1.36 5.516-1.36 4.718 0 7.718 3.063 3.016 3.063 3.016 7.719 0 4.719-3.047 7.812-3.031 3.094-7.64 3.094-2.86 0-5.454-1.281-2.578-1.297-3.921-3.781-1.344-2.5-1.344-6.079zm5.626.297q0 3.094 1.453 4.735 1.469 1.64 3.625 1.64 2.14 0 3.594-1.64 1.453-1.64 1.453-4.766 0-3.047-1.453-4.687-1.453-1.641-3.594-1.641-2.156 0-3.625 1.64-1.453 1.641-1.453 4.72zm33.73 10.375v-3.109q-1.14 1.656-2.984 2.625-1.844.953-3.89.953-2.094 0-3.766-.922-1.657-.922-2.407-2.578-.734-1.656-.734-4.594v-13.125h5.5v9.532q0 4.375.297 5.375.297.984 1.094 1.562.812.563 2.047.563 1.406 0 2.515-.766 1.11-.766 1.516-1.906.422-1.157.422-5.61v-8.75h5.484v20.75h-5.094zm10.621-20.75h5.11v3.047q1-1.562 2.703-2.531 1.703-.984 3.766-.984 3.609 0 6.125 2.843 2.53 2.828 2.53 7.891 0 5.187-2.546 8.078-2.531 2.875-6.14 2.875-1.72 0-3.126-.687-1.39-.688-2.937-2.344v10.453h-5.485v-28.64zm5.422 10.032q0 3.484 1.39 5.156 1.392 1.672 3.376 1.672 1.922 0 3.187-1.532 1.266-1.53 1.266-5.03 0-3.266-1.312-4.845-1.297-1.578-3.235-1.578-2.015 0-3.344 1.563-1.328 1.547-1.328 4.594zm17.23 4.796l5.516-.843q.344 1.61 1.422 2.437 1.078.828 3 .828 2.14 0 3.203-.78.735-.548.735-1.47 0-.625-.39-1.03-.423-.392-1.845-.72-6.64-1.468-8.421-2.672-2.454-1.687-2.454-4.671 0-2.704 2.125-4.532 2.125-1.843 6.61-1.843 4.25 0 6.312 1.39 2.078 1.39 2.86 4.11l-5.172.953q-.328-1.219-1.266-1.86-.922-.64-2.64-.64-2.172 0-3.11.61-.625.421-.625 1.108 0 .579.547 1 .75.547 5.125 1.547 4.39.985 6.125 2.438 1.719 1.453 1.719 4.078 0 2.844-2.39 4.906-2.376 2.047-7.048 2.047-4.234 0-6.703-1.719-2.469-1.718-3.234-4.672z"/>
    <path fill="#d9ead3" d="M206.794 189.188c0-13.82 11.204-25.024 25.024-25.024h491.747a25.024 25.024 0 0125.024 25.024v100.094c0 13.82-11.203 25.024-25.024 25.024H231.818c-13.82 0-25.024-11.204-25.024-25.024z" fill-rule="evenodd"/>
    <path stroke="#000" stroke-width="3" stroke-linejoin="round" stroke-linecap="butt" d="M206.794 189.188h0c0-13.82 11.204-25.024 25.024-25.024h491.747a25.024 25.024 0 0125.024 25.024v100.094c0 13.82-11.203 25.024-25.024 25.024H231.818c-13.82 0-25.024-11.204-25.024-25.024z"/>
    <path fill="#000" d="M233.451 203.854l2.86-.25q.203 1.719.937 2.828.75 1.094 2.313 1.781 1.562.672 3.515.672 1.735 0 3.063-.515 1.328-.516 1.969-1.407.656-.906.656-1.968 0-1.079-.625-1.875-.625-.813-2.063-1.36-.921-.36-4.078-1.11-3.156-.765-4.422-1.437-1.64-.859-2.453-2.125-.797-1.28-.797-2.859 0-1.734.985-3.234.984-1.516 2.875-2.297 1.89-.782 4.203-.782 2.547 0 4.484.829 1.953.812 3 2.406t1.125 3.61l-2.906.218q-.234-2.172-1.594-3.281-1.343-1.11-3.984-1.11-2.75 0-4.016 1.016-1.25 1-1.25 2.422 0 1.234.89 2.031.876.797 4.563 1.64 3.704.829 5.079 1.454 2 .922 2.953 2.344.953 1.406.953 3.25 0 1.828-1.047 3.453-1.047 1.61-3.016 2.515-1.953.891-4.406.891-3.11 0-5.219-.906-2.093-.907-3.297-2.719-1.187-1.828-1.25-4.125zm32.891 7.36v-2.438q-1.937 2.812-5.266 2.812-1.468 0-2.75-.562-1.265-.563-1.89-1.406-.61-.86-.86-2.094-.171-.828-.171-2.625V194.62h2.812v9.203q0 2.203.172 2.968.266 1.11 1.125 1.75.86.625 2.125.625 1.266 0 2.375-.64 1.11-.656 1.562-1.766.47-1.125.47-3.25v-8.89h2.812v16.593h-2.516zm9.516 0h-2.61v-22.907h2.813v8.172q1.781-2.234 4.547-2.234 1.53 0 2.89.625 1.375.609 2.25 1.734.89 1.11 1.39 2.687.5 1.579.5 3.375 0 4.266-2.108 6.594-2.11 2.328-5.063 2.328-2.937 0-4.61-2.453v2.078zm-.032-8.423q0 2.985.813 4.313 1.328 2.172 3.594 2.172 1.843 0 3.187-1.594 1.344-1.61 1.344-4.781 0-3.25-1.297-4.797-1.281-1.547-3.11-1.547-1.843 0-3.187 1.61-1.344 1.593-1.344 4.624zm35.204-.562v-2.688l9.703-.015v8.5q-2.235 1.781-4.61 2.687-2.375.891-4.875.891-3.375 0-6.14-1.438-2.75-1.453-4.157-4.187-1.406-2.734-1.406-6.11 0-3.343 1.39-6.234 1.407-2.906 4.032-4.312 2.625-1.407 6.047-1.407 2.484 0 4.484.813 2.016.797 3.157 2.234 1.14 1.438 1.734 3.75l-2.734.75q-.516-1.75-1.282-2.75-.765-1-2.187-1.593-1.422-.61-3.156-.61-2.079 0-3.594.64-1.516.626-2.453 1.657-.922 1.031-1.438 2.266-.875 2.125-.875 4.61 0 3.062 1.047 5.124 1.063 2.063 3.078 3.063 2.016 1 4.281 1 1.97 0 3.844-.75 1.875-.766 2.844-1.625v-4.266h-6.734zm13.78 8.984V194.62h2.532v2.515q.969-1.765 1.781-2.328.828-.562 1.813-.562 1.422 0 2.89.906l-.968 2.61q-1.032-.61-2.063-.61-.922 0-1.656.562-.734.547-1.047 1.532-.469 1.5-.469 3.28v8.688h-2.812zm9.641-8.297q0-4.609 2.563-6.828 2.14-1.843 5.219-1.843 3.422 0 5.593 2.25 2.172 2.234 2.172 6.187 0 3.203-.968 5.047-.954 1.828-2.797 2.844-1.828 1.015-4 1.015-3.485 0-5.641-2.234-2.14-2.234-2.14-6.438zm2.891 0q0 3.188 1.39 4.782 1.391 1.578 3.5 1.578 2.094 0 3.485-1.594 1.39-1.594 1.39-4.86 0-3.077-1.406-4.656-1.39-1.593-3.468-1.593-2.11 0-3.5 1.578-1.391 1.578-1.391 4.765zm26.828 8.297v-2.437q-1.937 2.812-5.265 2.812-1.47 0-2.75-.562-1.266-.563-1.891-1.406-.61-.86-.86-2.094-.171-.828-.171-2.625V194.62h2.812v9.203q0 2.203.172 2.968.266 1.11 1.125 1.75.86.625 2.125.625 1.266 0 2.375-.64 1.11-.656 1.563-1.766.468-1.125.468-3.25v-8.89h2.813v16.593h-2.516zm6.922 6.36V194.62h2.563v2.156q.906-1.266 2.046-1.89 1.141-.641 2.766-.641 2.125 0 3.75 1.093 1.625 1.094 2.453 3.094.828 1.984.828 4.36 0 2.546-.922 4.593-.906 2.031-2.656 3.125-1.734 1.078-3.656 1.078-1.406 0-2.531-.593-1.11-.594-1.828-1.5v8.078h-2.813zm2.547-14.563q0 3.203 1.297 4.735 1.297 1.53 3.14 1.53 1.875 0 3.204-1.577 1.343-1.594 1.343-4.922 0-3.172-1.312-4.75-1.297-1.578-3.11-1.578-1.796 0-3.187 1.687-1.375 1.672-1.375 4.875zm14.125 3.25l2.781-.437q.235 1.672 1.297 2.562 1.078.89 3 .89 1.938 0 2.875-.78.938-.797.938-1.86 0-.953-.829-1.5-.578-.375-2.875-.953-3.093-.781-4.296-1.344-1.188-.578-1.813-1.578-.61-1.015-.61-2.234 0-1.11.5-2.047.516-.953 1.391-1.578.657-.485 1.782-.813 1.14-.343 2.437-.343 1.953 0 3.422.562 1.484.563 2.187 1.531.704.953.97 2.563l-2.75.375q-.188-1.281-1.095-2-.89-.719-2.53-.719-1.938 0-2.766.64-.829.641-.829 1.5 0 .548.344.985.344.453 1.078.75.422.156 2.485.719 2.984.797 4.156 1.312 1.187.5 1.86 1.47.671.968.671 2.405 0 1.407-.828 2.657-.812 1.234-2.36 1.921-1.546.672-3.5.672-3.234 0-4.937-1.343-1.687-1.344-2.156-3.985z"/>
    <path fill="#c9daf8" d="M349.707 241.35c0-5.662 4.59-10.252 10.253-10.252h364.818a10.252 10.252 0 0110.252 10.253v41.007c0 5.662-4.59 10.252-10.252 10.252H359.96c-5.663 0-10.253-4.59-10.253-10.252z" fill-rule="evenodd"/>
    <path stroke="#000" stroke-width="3" stroke-linejoin="round" stroke-linecap="butt" d="M349.707 241.35h0c0-5.662 4.59-10.252 10.253-10.252h364.818a10.252 10.252 0 0110.252 10.253v41.007c0 5.662-4.59 10.252-10.252 10.252H359.96c-5.663 0-10.253-4.59-10.253-10.252z"/>
    <path fill="#000" d="M373.07 273.574v-22.906h8.64q2.281 0 3.485.219 1.687.281 2.828 1.078 1.14.781 1.828 2.203.703 1.422.703 3.125 0 2.922-1.86 4.953-1.859 2.016-6.718 2.016H376.1v9.312h-3.031zm3.03-12.015h5.923q2.937 0 4.171-1.094 1.235-1.094 1.235-3.078 0-1.438-.734-2.453-.72-1.032-1.907-1.36-.765-.203-2.828-.203h-5.86v8.188zm17.923 12.015v-16.593h2.53v2.515q.97-1.765 1.782-2.328.828-.562 1.813-.562 1.421 0 2.89.906l-.969 2.61q-1.03-.61-2.062-.61-.922 0-1.656.562-.735.547-1.047 1.532-.469 1.5-.469 3.28v8.688h-2.812zm9.64-8.297q0-4.609 2.563-6.828 2.14-1.843 5.219-1.843 3.421 0 5.593 2.25 2.172 2.234 2.172 6.187 0 3.203-.969 5.047-.953 1.828-2.796 2.844-1.829 1.015-4 1.015-3.485 0-5.641-2.234-2.14-2.234-2.14-6.438zm2.89 0q0 3.188 1.392 4.782 1.39 1.578 3.5 1.578 2.093 0 3.484-1.594 1.39-1.594 1.39-4.86 0-3.077-1.406-4.656-1.39-1.593-3.469-1.593-2.109 0-3.5 1.578-1.39 1.578-1.39 4.765zm15.938-11.343v-3.266h2.813v3.266h-2.813zm-3.562 26.078l.531-2.39q.844.218 1.328.218.86 0 1.281-.578.422-.563.422-2.844v-17.437h2.813v17.5q0 3.062-.797 4.265-1.016 1.563-3.375 1.563-1.14 0-2.203-.297zm22.047-11.781l2.906.359q-.688 2.547-2.547 3.953-1.86 1.406-4.75 1.406-3.64 0-5.781-2.234-2.125-2.25-2.125-6.297 0-4.187 2.156-6.5 2.156-2.312 5.594-2.312 3.328 0 5.437 2.265 2.11 2.266 2.11 6.375 0 .25-.016.75h-12.375q.156 2.735 1.547 4.188 1.39 1.453 3.469 1.453 1.547 0 2.64-.813 1.094-.812 1.735-2.593zm-9.235-4.547h9.266q-.188-2.094-1.063-3.14-1.343-1.626-3.484-1.626-1.937 0-3.265 1.297-1.313 1.297-1.454 3.469zm26.5 3.812l2.766.36q-.453 2.859-2.328 4.484-1.86 1.61-4.578 1.61-3.406 0-5.485-2.22-2.062-2.234-2.062-6.39 0-2.688.89-4.703.891-2.016 2.704-3.016 1.828-1.015 3.968-1.015 2.704 0 4.422 1.375 1.719 1.359 2.203 3.875l-2.734.421q-.39-1.671-1.39-2.515-.985-.844-2.391-.844-2.125 0-3.453 1.531-1.329 1.516-1.329 4.813 0 3.344 1.282 4.86 1.281 1.515 3.344 1.515 1.656 0 2.765-1.016 1.11-1.015 1.406-3.125zm11.313 3.563l.406 2.484q-1.187.25-2.125.25-1.531 0-2.375-.484-.844-.485-1.187-1.266-.344-.797-.344-3.328v-9.547h-2.063v-2.187h2.063v-4.11l2.797-1.687v5.797h2.828v2.187h-2.828v9.703q0 1.203.14 1.547.157.344.485.547.344.203.969.203.468 0 1.234-.11zm1.625-2.438l2.781-.437q.235 1.672 1.297 2.562 1.078.89 3 .89 1.938 0 2.875-.78.938-.797.938-1.86 0-.953-.829-1.5-.578-.375-2.875-.953-3.093-.781-4.296-1.344-1.188-.578-1.813-1.578-.61-1.015-.61-2.234 0-1.11.5-2.047.516-.953 1.391-1.578.656-.485 1.781-.813 1.141-.343 2.438-.343 1.953 0 3.422.562 1.484.563 2.187 1.531.704.953.97 2.563l-2.75.375q-.188-1.281-1.095-2-.89-.719-2.53-.719-1.938 0-2.767.64-.828.641-.828 1.5 0 .548.344.985.344.453 1.078.75.422.156 2.485.719 2.984.797 4.156 1.312 1.187.5 1.86 1.47.671.968.671 2.405 0 1.407-.828 2.657-.813 1.234-2.36 1.921-1.546.672-3.5.672-3.234 0-4.937-1.343-1.687-1.344-2.156-3.985z"/>
    <path fill="#c9daf8" d="M206.794 367.078c0-5.662 4.59-10.253 10.252-10.253h364.819a10.252 10.252 0 0110.252 10.253v41.007c0 5.662-4.59 10.252-10.252 10.252H217.046c-5.662 0-10.252-4.59-10.252-10.252z" fill-rule="evenodd"/>
    <path stroke="#000" stroke-width="3" stroke-linejoin="round" stroke-linecap="butt" d="M206.794 367.078h0c0-5.662 4.59-10.253 10.252-10.253h364.819a10.252 10.252 0 0110.252 10.253v41.007c0 5.662-4.59 10.252-10.252 10.252H217.046c-5.662 0-10.252-4.59-10.252-10.252z"/>
    <path fill="#000" d="M230.156 399.301v-22.906h8.64q2.282 0 3.485.219 1.688.281 2.828 1.078 1.14.781 1.828 2.203.703 1.422.703 3.125 0 2.922-1.859 4.953-1.86 2.016-6.719 2.016h-5.875v9.312h-3.03zm3.031-12.015h5.922q2.938 0 4.172-1.094 1.234-1.094 1.234-3.078 0-1.438-.734-2.453-.719-1.032-1.906-1.36-.766-.203-2.828-.203h-5.86v8.188zM251.11 399.3v-16.593h2.531v2.515q.97-1.765 1.782-2.328.828-.562 1.812-.562 1.422 0 2.89.906l-.968 2.61q-1.031-.61-2.062-.61-.922 0-1.657.562-.734.547-1.047 1.532-.468 1.5-.468 3.28v8.688h-2.813zm9.64-8.297q0-4.609 2.563-6.828 2.141-1.843 5.22-1.843 3.421 0 5.593 2.25 2.172 2.234 2.172 6.187 0 3.203-.969 5.047-.953 1.828-2.797 2.844-1.828 1.015-4 1.015-3.484 0-5.64-2.234-2.141-2.234-2.141-6.438zm2.891 0q0 3.188 1.391 4.782 1.39 1.578 3.5 1.578 2.094 0 3.484-1.594 1.391-1.594 1.391-4.86 0-3.077-1.406-4.656-1.39-1.593-3.469-1.593-2.11 0-3.5 1.578-1.39 1.578-1.39 4.765zm15.938-11.343v-3.266h2.812v3.266h-2.812zm-3.563 26.078l.532-2.39q.843.218 1.328.218.86 0 1.281-.578.422-.563.422-2.844v-17.437h2.812v17.5q0 3.062-.796 4.265-1.016 1.563-3.375 1.563-1.141 0-2.204-.297zm22.047-11.781l2.907.359q-.688 2.547-2.547 3.953-1.86 1.406-4.75 1.406-3.64 0-5.782-2.234-2.125-2.25-2.125-6.297 0-4.187 2.157-6.5 2.156-2.312 5.593-2.312 3.329 0 5.438 2.265 2.11 2.266 2.11 6.375 0 .25-.016.75h-12.375q.156 2.735 1.547 4.188 1.39 1.453 3.468 1.453 1.547 0 2.641-.813 1.094-.812 1.734-2.593zm-9.234-4.547h9.266q-.188-2.094-1.063-3.14-1.344-1.626-3.484-1.626-1.938 0-3.266 1.297-1.312 1.297-1.453 3.469zm26.5 3.812l2.766.36q-.454 2.859-2.329 4.484-1.859 1.61-4.578 1.61-3.406 0-5.484-2.22-2.063-2.234-2.063-6.39 0-2.688.891-4.703.89-2.016 2.703-3.016 1.828-1.015 3.969-1.015 2.703 0 4.422 1.375 1.719 1.359 2.203 3.875l-2.734.421q-.391-1.671-1.391-2.515-.984-.844-2.39-.844-2.126 0-3.454 1.531-1.328 1.516-1.328 4.813 0 3.344 1.281 4.86 1.282 1.515 3.344 1.515 1.656 0 2.766-1.016 1.11-1.015 1.406-3.125zm11.312 3.563l.407 2.484q-1.188.25-2.125.25-1.532 0-2.375-.484-.844-.485-1.188-1.266-.344-.797-.344-3.328v-9.547h-2.062v-2.187h2.062v-4.11l2.797-1.687v5.797h2.828v2.187h-2.828v9.703q0 1.203.141 1.547.156.344.484.547.344.203.97.203.468 0 1.233-.11zm1.625-2.438l2.782-.437q.234 1.672 1.297 2.562 1.078.89 3 .89 1.937 0 2.875-.78.937-.797.937-1.86 0-.953-.828-1.5-.578-.375-2.875-.953-3.094-.781-4.297-1.344-1.187-.578-1.812-1.578-.61-1.015-.61-2.234 0-1.11.5-2.047.516-.953 1.39-1.578.657-.485 1.782-.813 1.14-.343 2.438-.343 1.953 0 3.421.562 1.485.563 2.188 1.531.703.953.969 2.563l-2.75.375q-.188-1.281-1.094-2-.89-.719-2.531-.719-1.938 0-2.766.64-.828.641-.828 1.5 0 .548.344.985.343.453 1.078.75.422.156 2.484.719 2.985.797 4.156 1.312 1.188.5 1.86 1.47.672.968.672 2.405 0 1.407-.828 2.657-.813 1.234-2.36 1.921-1.547.672-3.5.672-3.234 0-4.937-1.343-1.688-1.344-2.157-3.985z"/>
  </g>
</svg>

